<svg width="200" height="200" viewBox="0 0 200 200" xmlns="http://www.w3.org/2000/svg">
  <!-- Paisley Pattern -->
  <defs>
    <pattern id="paisley" x="0" y="0" width="100" height="100" patternUnits="userSpaceOnUse">
      <!-- Main Paisley Shape -->
      <path d="M50 20 Q70 10 80 30 Q85 50 75 70 Q65 85 50 80 Q35 85 25 70 Q15 50 20 30 Q30 10 50 20 Z" fill="#FFC107" opacity="0.3"/>
      
      <!-- Inner Details -->
      <circle cx="50" cy="50" r="8" fill="#F57C00" opacity="0.5"/>
      <path d="M50 42 Q55 50 50 58 Q45 50 50 42" fill="#6D4C41" opacity="0.4"/>
      
      <!-- Decorative Elements -->
      <circle cx="35" cy="35" r="3" fill="#4CAF50" opacity="0.6"/>
      <circle cx="65" cy="35" r="3" fill="#4CAF50" opacity="0.6"/>
      <circle cx="35" cy="65" r="3" fill="#4CAF50" opacity="0.6"/>
      <circle cx="65" cy="65" r="3" fill="#4CAF50" opacity="0.6"/>
    </pattern>
  </defs>
  
  <!-- Background -->
  <rect width="200" height="200" fill="#FFF8E1"/>
  
  <!-- Pattern -->
  <rect width="200" height="200" fill="url(#paisley)"/>
  
  <!-- Border -->
  <rect x="0" y="0" width="200" height="200" fill="none" stroke="#FFC107" stroke-width="2" opacity="0.5"/>
</svg>
