<svg width="80" height="80" viewBox="0 0 80 80" xmlns="http://www.w3.org/2000/svg">
  <!-- Turmeric Root -->
  <path d="M40 10 L45 20 L50 30 L48 40 L45 50 L40 60 L35 50 L32 40 L30 30 L35 20 Z" fill="#FFC107" stroke="#F57C00" stroke-width="1"/>
  
  <!-- Chili Pepper -->
  <path d="M25 15 L30 25 L28 35 L25 45 L30 55 L35 50 L32 40 L30 30 L25 20 Z" fill="#8B0000" stroke="#6D4C41" stroke-width="1"/>
  
  <!-- Cumin Seeds -->
  <ellipse cx="55" cy="25" rx="4" ry="2" fill="#6D4C41"/>
  <ellipse cx="60" cy="35" rx="3" ry="2" fill="#6D4C41"/>
  <ellipse cx="55" cy="45" rx="4" ry="2" fill="#6D4C41"/>
  
  <!-- Cardamom Pod -->
  <ellipse cx="65" cy="55" rx="6" ry="4" fill="#4CAF50" stroke="#2E7D32" stroke-width="1"/>
  <ellipse cx="65" cy="55" rx="4" ry="2" fill="#8BC34A"/>
</svg>
