<svg width="100" height="100" viewBox="0 0 100 100" xmlns="http://www.w3.org/2000/svg">
  <!-- Chart Background -->
  <rect x="10" y="20" width="80" height="60" fill="#FFF8E1" stroke="#6D4C41" stroke-width="2" rx="5"/>
  
  <!-- Chart Grid Lines -->
  <line x1="20" y1="30" x2="80" y2="30" stroke="#FFC107" stroke-width="1" opacity="0.3"/>
  <line x1="20" y1="50" x2="80" y2="50" stroke="#FFC107" stroke-width="1" opacity="0.3"/>
  <line x1="20" y1="70" x2="80" y2="70" stroke="#FFC107" stroke-width="1" opacity="0.3"/>
  
  <!-- Price Line -->
  <path d="M20 70 L30 60 L40 45 L50 55 L60 40 L70 35 L80 25" stroke="#4CAF50" stroke-width="3" fill="none"/>
  
  <!-- Data Points -->
  <circle cx="20" cy="70" r="3" fill="#4CAF50"/>
  <circle cx="30" cy="60" r="3" fill="#4CAF50"/>
  <circle cx="40" cy="45" r="3" fill="#4CAF50"/>
  <circle cx="50" cy="55" r="3" fill="#4CAF50"/>
  <circle cx="60" cy="40" r="3" fill="#4CAF50"/>
  <circle cx="70" cy="35" r="3" fill="#4CAF50"/>
  <circle cx="80" cy="25" r="3" fill="#4CAF50"/>
  
  <!-- Spice Emoji -->
  <text x="50" y="15" text-anchor="middle" font-size="20">🌶️</text>
  
  <!-- Arrow Up -->
  <path d="M45 85 L50 75 L55 85" stroke="#4CAF50" stroke-width="3" fill="none"/>
</svg>
